HIERARCHY
ROOT Hips
{
	OFFSET 0.000000 0.000000 0.000000 
	CHANNELS 6 Xposition Yposition Zposition Zrotation Yrotation Xrotation
	JOINT LeftUpLeg
	{
		OFFSET 1.363060 -1.794630 0.839290 
		CHANNELS 3 Zrotation Yrotation Xrotation
		JOINT LeftLeg
		{
			OFFSET 2.448110 -6.726130 0.000000 
			CHANNELS 3 Zrotation Yrotation Xrotation
			JOINT LeftFoot
			{
				OFFSET 2.562200 -7.039590 0.000000 
				CHANNELS 3 Zrotation Yrotation Xrotation
				JOINT LeftToeBase
				{
					OFFSET 0.157640 -0.433110 2.322550 
					CHANNELS 3 Zrotation Yrotation Xrotation
					End Site
					{
						OFFSET 0.000000 0.000000 0.000000 
					}
				}
			}
		}
	}
	JOINT RightUpLeg
	{
		OFFSET -1.305520 -1.794630 0.839290 
		CHANNELS 3 Zrotation Yrotation Xrotation
		JOINT RightLeg
		{
			OFFSET -2.542530 -6.985550 0.000000 
			CHANNELS 3 Zrotation Yrotation Xrotation
			JOINT RightFoot
			{
				OFFSET -2.568260 -7.056230 0.000000 
				CHANNELS 3 Zrotation Yrotation Xrotation
				JOINT RightToeBase
				{
					OFFSET -0.164730 -0.452590 2.363150 
					CHANNELS 3 Zrotation Yrotation Xrotation
					End Site
					{
						OFFSET 0.000000 0.000000 0.000000 
					}
				}
			}
		}
	}
	JOINT Spine
	{
		OFFSET 0.028270 2.035590 -0.193380 
		CHANNELS 3 Zrotation Yrotation Xrotation
		JOINT Spine1
		{
			OFFSET 0.056720 2.048850 -0.042750 
			CHANNELS 3 Zrotation Yrotation Xrotation
			JOINT Neck1
			{
				OFFSET -0.054170 1.746240 0.172020 
				CHANNELS 3 Zrotation Yrotation Xrotation
				JOINT Head
				{
					OFFSET 0.104070 1.761360 -0.123970 
					CHANNELS 3 Zrotation Yrotation Xrotation
					End Site
					{
						OFFSET 0.000000 0.000000 0.000000 
					}
				}
			}
			JOINT LeftArm
			{
				OFFSET 3.362410 1.200890 -0.311210 
				CHANNELS 3 Zrotation Yrotation Xrotation
				JOINT LeftForeArm
				{
					OFFSET 4.983000 -0.000000 -0.000000 
					CHANNELS 3 Zrotation Yrotation Xrotation
					JOINT LeftHand
					{
						OFFSET 3.483560 -0.000000 -0.000000 
						CHANNELS 3 Zrotation Yrotation Xrotation
						JOINT LeftHandIndex1
						{
							OFFSET 0.715260 -0.000000 -0.000000 
							CHANNELS 3 Zrotation Yrotation Xrotation
							End Site
							{
								OFFSET 0.000000 0.000000 0.000000 
							}
						}
					}
				}
			}
			JOINT RightArm
			{
				OFFSET -3.136600 1.374050 -0.404650 
				CHANNELS 3 Zrotation Yrotation Xrotation
				JOINT RightForeArm
				{
					OFFSET -5.241900 -0.000000 -0.000000 
					CHANNELS 3 Zrotation Yrotation Xrotation
					JOINT RightHand
					{
						OFFSET -3.444170 -0.000000 -0.000000 
						CHANNELS 3 Zrotation Yrotation Xrotation
						JOINT RightHandIndex1
						{
							OFFSET -0.622530 -0.000000 -0.000000 
							CHANNELS 3 Zrotation Yrotation Xrotation
							End Site
							{
								OFFSET 0.000000 0.000000 0.000000 
							}
						}
					}
				}
			}
		}
	}
}
MOTION
Frames: 9
Frame Time: 0.041667
-6.240035 17.580149 -2.941104 2.199114 1.328591 7.252245 -23.831139 -7.828342 -35.336198 0.239416 7.417256 20.866375 -2.322652 11.326797 3.098295 0.786800 -5.662600 -15.808600 24.350608 12.710413 -7.964889 -2.826231 -10.414686 34.054563 -0.317131 -2.487023 -12.907185 -0.601800 -4.965800 13.811000 1.059549 3.412167 -1.840670 2.949382 1.836590 -1.718682 6.230144 14.272622 20.793634 2.613600 6.767700 10.562600 -81.665863 -0.581877 39.119154 16.786746 -31.667382 -5.979848 -1.096068 -1.567124 2.497505 -7.125000 0.000000 0.000000 76.825768 3.956322 13.576972 -16.600862 27.640515 -5.326575 0.545286 0.144447 13.722739 7.125000 0.000000 0.000000 
-6.248892 17.609773 -3.028245 2.416619 2.149521 7.214519 -23.966485 -7.921894 -35.229102 0.469009 7.894012 22.339414 -2.051010 10.330208 3.321122 0.701600 -5.353900 -14.920800 24.172561 12.440432 -8.086810 -2.748592 -10.330793 33.735071 -0.168494 -2.962862 -12.617236 -0.609600 -4.997200 13.900600 1.009849 3.306796 -1.780762 2.797404 1.777124 -1.457215 6.205504 14.223024 20.600706 2.609300 6.748500 10.485100 -81.723003 -0.639123 38.200200 16.578078 -31.475507 -5.931652 -0.880415 -1.979663 6.337420 -7.125000 0.000000 0.000000 77.152637 3.625126 13.494811 -16.737071 27.820938 -5.401152 0.552413 0.182855 13.796145 7.125000 0.000000 0.000000 
-6.259276 17.639092 -3.118745 2.384212 2.881171 7.177230 -23.684048 -8.086568 -35.044686 0.693208 8.330183 23.685528 -1.852957 9.598931 3.538021 0.787200 -5.664100 -15.812800 24.314915 12.410855 -8.220766 -2.699700 -10.275461 33.532501 -0.004725 -3.504831 -12.363418 -0.616300 -5.024300 13.978000 0.985834 3.309784 -1.747876 2.613901 1.774651 -1.282382 6.188874 14.143387 20.611536 2.640600 6.697300 10.587300 -81.726895 -0.338414 38.053372 15.741581 -30.543865 -5.493750 -0.888568 -1.989385 5.868410 -7.125000 0.000000 0.000000 77.487747 3.168300 13.306964 -16.897264 28.035585 -5.488815 0.561738 0.163903 14.388335 7.125000 0.000000 0.000000 
-6.269048 17.669224 -3.214234 2.653189 3.568741 7.232815 -23.657033 -8.476050 -34.864846 0.937880 8.773714 25.090878 -1.679163 8.920447 3.514679 0.949100 -6.204400 -17.378700 24.098562 12.373520 -8.594281 -2.660295 -10.242328 33.374146 0.238429 -4.282607 -11.890887 -0.606300 -4.984200 13.863400 1.010976 3.285992 -1.765738 2.878551 1.760079 -1.385714 5.964611 14.135662 20.353366 2.484700 6.700300 10.417800 -81.996627 0.200208 37.667945 14.785801 -29.472705 -5.013508 -0.897462 -2.007813 5.858932 -7.125000 0.000000 0.000000 77.494271 2.477706 13.228495 -17.197569 28.418990 -5.660064 0.553215 0.203138 14.597662 7.125000 0.000000 0.000000 
-6.282791 17.688770 -3.304937 2.919823 4.131013 7.297315 -23.558855 -8.930133 -34.684972 1.195530 9.216911 26.523590 -1.478916 8.110579 3.347947 1.123000 -6.731300 -18.921800 23.913172 12.594381 -8.867334 -2.643559 -10.237405 33.315677 0.474014 -5.121390 -11.727900 -0.630100 -5.079000 14.134000 1.003148 3.340038 -1.796853 3.054798 1.784856 -1.510123 5.830742 14.048325 20.244542 2.376200 6.670600 10.360100 -82.103852 0.660456 37.062666 13.839044 -28.376590 -4.562063 -0.868784 -2.067289 5.988626 -7.125000 0.000000 0.000000 77.549054 1.911908 13.162191 -16.961208 28.172126 -5.531649 0.578738 0.119228 14.072473 7.125000 0.000000 0.000000 
-6.298265 17.712184 -3.395438 2.938983 4.828746 7.145464 -23.183663 -9.334758 -34.285346 1.466343 9.655047 27.970859 -1.274855 7.254821 3.007658 1.174800 -6.879600 -19.359200 24.061434 12.652267 -8.936076 -2.640345 -10.236155 33.296650 0.683150 -5.839767 -11.501024 -0.686700 -5.298000 14.760500 0.992389 3.355622 -1.751652 3.007251 1.782620 -1.393825 5.847339 13.986869 20.279735 2.425900 6.624600 10.438400 -82.196947 0.563594 36.123297 12.698318 -26.954893 -4.031574 -0.850096 -2.085997 6.332513 -7.125000 0.000000 0.000000 77.649294 1.821713 13.076861 -16.814446 27.992631 -5.450368 0.589335 0.134427 13.263033 7.125000 0.000000 0.000000 
-6.320152 17.730101 -3.484309 3.054503 5.530607 7.007973 -22.857036 -9.759962 -33.882110 1.752148 10.089476 29.423350 -1.096099 6.505394 2.739024 1.136200 -6.769600 -19.034700 24.121409 12.710758 -9.027809 -2.644472 -10.248909 33.316652 0.858013 -6.481121 -11.459245 -0.746300 -5.518000 15.392200 0.985349 3.380974 -1.674187 3.094222 1.776584 -1.114181 5.951933 13.942135 20.398284 2.543900 6.578800 10.570700 -82.355444 0.270576 35.203620 11.549432 -25.468541 -3.515804 -0.896253 -2.059308 6.537335 -7.125000 0.000000 0.000000 77.904530 1.481701 12.771814 -16.949501 28.160134 -5.526260 0.589127 0.172547 13.223315 7.125000 0.000000 0.000000 
-6.327278 17.750257 -3.573689 3.046065 6.148937 6.820750 -22.410242 -10.124670 -33.357821 2.047389 10.508388 30.857648 -0.932321 5.808891 2.464035 1.011300 -6.398600 -17.945500 24.216287 12.626198 -9.145572 -2.651289 -10.265345 33.350635 0.975084 -6.924313 -11.482657 -0.785600 -5.658300 15.796300 0.958355 3.446041 -1.625833 2.951711 1.802853 -1.021874 5.911241 13.834146 20.220611 2.502300 6.541800 10.454200 -82.398339 0.271981 34.115404 10.562008 -24.159097 -3.098357 -0.928106 -2.049722 7.073446 -7.125000 0.000000 0.000000 78.266847 1.013389 12.317856 -17.021195 28.265673 -5.571574 0.591147 0.184473 13.834471 7.125000 0.000000 0.000000 
-6.330230 17.759114 -3.666022 3.186445 6.717013 6.668033 -22.107649 -10.742049 -32.809888 2.351420 10.904412 32.245556 -0.883897 5.570851 2.079101 1.090100 -6.635300 -18.639300 24.079035 12.335385 -9.415365 -2.662419 -10.294653 33.408419 1.065883 -7.254719 -11.453607 -0.798800 -5.704500 15.929300 0.903704 3.460974 -1.624432 2.763853 1.807992 -1.144829 5.947419 13.757243 20.110631 2.499800 6.521300 10.323900 -82.263119 0.517325 33.072506 9.746440 -23.066408 -2.773853 -0.944669 -2.144995 7.512753 -7.125000 0.000000 0.000000 78.562623 0.478553 12.383064 -16.736991 27.965481 -5.411626 0.636936 0.074179 12.386831 7.125000 0.000000 0.000000 
